<svg width="21" height="21" viewBox="0 0 21 21" fill="none" xmlns="http://www.w3.org/2000/svg">
<g opacity="0.51" clip-path="url(#clip0_4479_13)">
<path d="M19.0196 14.7538V17.3475C19.0206 17.5883 18.9713 17.8266 18.8748 18.0473C18.7784 18.2679 18.6369 18.4659 18.4595 18.6287C18.282 18.7915 18.0726 18.9154 17.8445 18.9926C17.6164 19.0697 17.3747 19.0983 17.1348 19.0767C14.4744 18.7876 11.9188 17.8785 9.6735 16.4224C7.58451 15.095 5.81342 13.3239 4.486 11.2349C3.02483 8.97938 2.11552 6.41138 1.83172 3.73896C1.81012 3.49987 1.83853 3.25891 1.91516 3.03141C1.99178 2.8039 2.11494 2.59485 2.27678 2.41755C2.43863 2.24025 2.63562 2.09859 2.85521 2.0016C3.0748 1.9046 3.31219 1.85439 3.55225 1.85417H6.146C6.56558 1.85004 6.97236 1.99862 7.2905 2.27222C7.60864 2.54582 7.81644 2.92577 7.87516 3.34125C7.98464 4.17131 8.18767 4.98632 8.48037 5.77073C8.59669 6.08019 8.62187 6.4165 8.55291 6.73982C8.48396 7.06315 8.32376 7.35993 8.09131 7.595L6.99329 8.69302C8.22407 10.8575 10.0163 12.6497 12.1808 13.8805L13.2788 12.7825C13.5139 12.55 13.8107 12.3899 14.134 12.3209C14.4573 12.2519 14.7936 12.2771 15.1031 12.3934C15.8875 12.6861 16.7025 12.8892 17.5326 12.9986C17.9525 13.0579 18.3361 13.2694 18.6103 13.593C18.8845 13.9166 19.0302 14.3297 19.0196 14.7538Z" stroke="white" stroke-width="1.72917" stroke-linecap="round" stroke-linejoin="round"/>
<path d="M12.1483 1.85416C13.9106 2.03985 15.5567 2.82146 16.8144 4.06973C18.0721 5.318 18.866 6.95816 19.065 8.71896" stroke="white" stroke-width="1.72917" stroke-linecap="round" stroke-linejoin="round"/>
<path d="M12.1483 5.3125C12.9986 5.48017 13.7789 5.89958 14.3879 6.51627C14.9969 7.13296 15.4065 7.91847 15.5634 8.77083" stroke="white" stroke-width="1.72917" stroke-linecap="round" stroke-linejoin="round"/>
</g>
<defs>
<clipPath id="clip0_4479_13">
<rect width="20.75" height="20.75" fill="white" transform="translate(0 0.125)"/>
</clipPath>
</defs>
</svg>
